HIERARCHY
ROOT Character1_Hips
{
  OFFSET 2.28432 92.6422 -30.7737
  CHANNELS 6 Xposition Yposition Zposition Zrotation Xrotation Yrotation
  JOINT Character1_Spine
  {
    OFFSET 0 9 3
    CHANNELS 3 Zrotation Xrotation Yrotation
    JOINT Character1_Spine1
    {
      OFFSET 0 12.6667 0
      CHANNELS 3 Zrotation Xrotation Yrotation
      JOINT Character1_Spine2
      {
        OFFSET 0 12.6667 0
        CHANNELS 3 Zrotation Xrotation Yrotation
        JOINT Character1_LeftShoulder
        {
          OFFSET 7 14.2552 0
          CHANNELS 3 Zrotation Xrotation Yrotation
          JOINT Character1_LeftArm
          {
            OFFSET 10.7073 0.0001374 0
            CHANNELS 3 Zrotation Xrotation Yrotation
            JOINT Character1_LeftForeArm
            {
              OFFSET 27.3055 0 0
              CHANNELS 3 Zrotation Xrotation Yrotation
              JOINT Character1_LeftHand
              {
                OFFSET 26.6971 0 0
                CHANNELS 3 Zrotation Xrotation Yrotation
                End Site
                {
                  OFFSET 0 0 0
                }
              }
            }
          }
        }
        JOINT Character1_RightShoulder
        {
          OFFSET -7 14.2552 0
          CHANNELS 3 Zrotation Xrotation Yrotation
          JOINT Character1_RightArm
          {
            OFFSET -10.7073 0.0004332 0
            CHANNELS 3 Zrotation Xrotation Yrotation
            JOINT Character1_RightForeArm
            {
              OFFSET -27.3056 0 0
              CHANNELS 3 Zrotation Xrotation Yrotation
              JOINT Character1_RightHand
              {
                OFFSET -26.697 0 0
                CHANNELS 3 Zrotation Xrotation Yrotation
                End Site
                {
                  OFFSET 0 0 0
                }
              }
            }
          }
        }
        JOINT Character1_Neck
        {
          OFFSET 0 12.6667 0
          CHANNELS 3 Zrotation Xrotation Yrotation
          JOINT Character1_Head
          {
            OFFSET 0 20 0
            CHANNELS 3 Zrotation Xrotation Yrotation
            End Site
            {
              OFFSET 0 0 0
            }
          }
        }
      }
    }
  }
  JOINT Character1_RightUpLeg
  {
    OFFSET -9.035 -4.63425 1.845
    CHANNELS 3 Zrotation Xrotation Yrotation
    JOINT Character1_RightLeg
    {
      OFFSET -0.919521 -40.345 1.155
      CHANNELS 3 Zrotation Xrotation Yrotation
      JOINT Character1_RightFoot
      {
        OFFSET 1.95452 -45.2655 -4.18888
        CHANNELS 3 Zrotation Xrotation Yrotation
        JOINT Character1_RightToeBase
        {
          OFFSET 1.87056 -6.69517 14.7145
          CHANNELS 3 Zrotation Xrotation Yrotation
          End Site
          {
            OFFSET 0 0 0
          }
        }
        JOINT FootR
        {
          OFFSET 8 -7.75529 4.18888
          CHANNELS 3 Zrotation Xrotation Yrotation
          End Site
          {
            OFFSET 0 0 0
          }
        }
      }
      JOINT TibiaBoxR1
      {
        OFFSET 0.679521 -22.8458 -3.405
        CHANNELS 3 Zrotation Xrotation Yrotation
        End Site
        {
          OFFSET 0 0 0
        }
      }
    }
    JOINT FemurBoxR1
    {
      OFFSET -0.965 -20.9557 -0.845
      CHANNELS 3 Zrotation Xrotation Yrotation
      End Site
      {
        OFFSET 0 0 0
      }
    }
  }
  JOINT Character1_LeftUpLeg
  {
    OFFSET 9.035 -4.63425 1.845
    CHANNELS 3 Zrotation Xrotation Yrotation
    JOINT Character1_LeftLeg
    {
      OFFSET 0.919521 -40.345 1.155
      CHANNELS 3 Zrotation Xrotation Yrotation
      JOINT Character1_LeftFoot
      {
        OFFSET -1.95452 -45.2655 -4.18888
        CHANNELS 3 Zrotation Xrotation Yrotation
        JOINT Character1_LeftToeBase
        {
          OFFSET -1.87056 -6.69517 14.7145
          CHANNELS 3 Zrotation Xrotation Yrotation
          End Site
          {
            OFFSET 0 0 0
          }
        }
        JOINT FootL
        {
          OFFSET -8 -7.75529 4.18888
          CHANNELS 3 Zrotation Xrotation Yrotation
          End Site
          {
            OFFSET 0 0 0
          }
        }
      }
      JOINT TibiaBoxL1
      {
        OFFSET -0.679521 -22.8458 -3.405
        CHANNELS 3 Zrotation Xrotation Yrotation
        End Site
        {
          OFFSET 0 0 0
        }
      }
    }
    JOINT FemurBoxL1
    {
      OFFSET 0.965 -20.9557 -0.845
      CHANNELS 3 Zrotation Xrotation Yrotation
      End Site
      {
        OFFSET 0 0 0
      }
    }
  }
  JOINT TorsoBox1
  {
    OFFSET 0 0 1.83
    CHANNELS 3 Zrotation Xrotation Yrotation
    End Site
    {
      OFFSET 0 0 0
    }
  }
}
MOTION
Frames:	6
Frame Time:	0.00833333
2.28432 92.6422 -30.7737 -4.22133 2.70385 -4.15113 -0.10912 2.75658 -13.3873 4.56458 -0.609742 9.23428 4.63511 -0.515457 9.20243 -1.78667 -0.00552778 0.355217 -85.0115 8.63931 5.2505 14.5481 12.6022 -17.3168 0.377405 -0.00763291 -2.31793 -2.35758 0.00805903 -0.398463 74.4892 19.4094 6.65307 -17.2157 -2.98328 26.9967 -0.0454648 -0.000357833 0.804019 -10.0294 0.215888 -3.52248 7.35056 -0.348598 -2.57308 6.85385 9.54532 7.8976 -0.527115 12.2585 -5.12374 4.58869 -14.1902 -0.617326 -8.76212 -20.3232 -7.22152 4.96962e-016 0 -0 -178 -5 180 179.002 0.985149 179.879 6.40864 -35.5698 -8.07828 1.82511 22.886 19.8111 -4.40137 -3.41943 0.577034 4.46875 -13.8844 6.75369 3.97569e-016 0 3.18055e-015 -2 5 1.81275e-015 0.99792 -0.985149 -0.120973 -7.06901e-016 1.00443e-015 -4.71267e-016 
2.35525 92.558 -29.777 -4.26008 2.67211 -4.09666 -0.0658126 2.7492 -13.3797 4.64345 -0.617349 9.1828 4.71156 -0.523096 9.15145 -1.77606 -0.00552778 0.355217 -85.1963 8.15727 5.43043 14.3979 13.044 -17.0375 0.391193 -0.00763267 -2.36165 -2.35758 0.00805903 -0.398463 74.4654 19.5392 6.45408 -17.1297 -3.45651 27.1975 -0.0454652 -0.000357838 0.744125 -10.2632 -0.156961 -3.54646 7.51108 0.354889 -2.5902 6.79487 10.1009 8.22214 -0.523689 12.5188 -5.1039 4.59055 -14.023 -0.616874 -8.74321 -19.7234 -7.23286 1.2921e-015 -3.18055e-015 -0 -178 -5 180 179.002 0.985149 179.879 6.51276 -35.5739 -6.88586 1.7177 23.3369 18.783 -3.94521 -2.51585 0.540157 4.66052 -11.2867 6.43222 3.97569e-016 4.77083e-015 -1.59028e-015 -2 5 3.6255e-015 0.99792 -0.985149 -0.120973 7.95264e-016 -5.02213e-016 4.71267e-016 
2.40078 92.4758 -28.7493 -4.45903 2.48398 -3.9362 -0.0145337 2.7932 -13.3213 4.74237 -0.515185 9.06414 4.80259 -0.416529 9.03469 -1.7831 -0.00552778 0.355217 -85.2055 7.13177 5.31957 14.1672 14.1483 -16.5078 0.429295 -0.00763199 -2.4818 -2.36262 0.00805903 -0.398222 74.424 19.2052 6.65626 -17.11 -3.31017 27.0794 -0.0454651 -0.000357837 0.758409 -10.3178 -0.0011153 -3.59257 7.50925 0.136375 -2.63579 6.97865 10.6419 8.49719 -0.528138 13.0384 -5.17832 4.59449 -13.6678 -0.615932 -8.74635 -19.4929 -7.32366 9.93923e-016 0 -3.97569e-016 -178 -5 180 179.002 0.985149 179.879 6.69484 -35.4065 -5.76613 1.60742 23.9723 17.8378 -3.45923 -1.57804 0.493338 4.76521 -9.9496 6.2656 0 0 -0 -2 5 -0 0.99792 -0.985149 -0.120973 -8.83626e-016 5.02213e-016 -4.71267e-016 
2.48886 92.3945 -27.6555 -4.39371 2.30354 -3.62463 -0.0377476 2.84538 -13.1465 4.73669 -0.476361 8.84573 4.78702 -0.386475 8.8204 -1.81668 -0.00552778 0.355217 -85.17 5.78708 5.30222 14.0664 15.6634 -16.0367 0.489293 -0.00763092 -2.66115 -2.38801 0.00805904 -0.384795 74.4738 18.8075 6.71137 -16.9126 -3.39101 26.8937 -0.0427525 -0.000357839 0.730766 -10.2793 0.295533 -3.70175 7.46759 -0.341281 -2.74536 6.88809 11.1273 8.49436 -0.53072 13.6481 -5.22694 4.59881 -13.2762 -0.614924 -8.71074 -20.0133 -7.44099 2.18663e-015 -3.18055e-015 -0 -178 -5 180 179.002 0.985149 179.879 6.47318 -35.1941 -4.60142 1.46834 24.6595 16.5482 -2.86326 -0.886596 0.433641 4.79587 -9.57038 6.21835 8.82781e-032 1.59028e-015 -3.18055e-015 -2 5 -1.81275e-015 0.99792 -0.985149 -0.120973 5.00722e-016 -5.02213e-016 9.42535e-016 
2.60214 92.3495 -26.5203 -4.30985 2.22948 -3.62585 -0.0689575 2.85929 -13.0962 4.69749 -0.449926 8.87461 4.74599 -0.364136 8.85027 -1.82855 -0.00552778 0.355217 -85.2403 5.48548 5.48206 14.1649 15.7434 -16.1207 0.494828 -0.00763082 -2.67693 -2.39046 0.00805904 -0.389547 74.7355 18.4105 6.48585 -16.5871 -3.96833 26.8734 -0.0343931 -0.000357846 0.636921 -10.3768 0.32017 -3.81404 7.72241 -0.516741 -2.81433 6.68467 11.5504 8.53998 -0.51529 14.1866 -5.07851 4.59495 -12.8872 -0.613955 -8.60122 -19.4899 -7.55664 -1.19271e-015 -3.18055e-015 -3.97569e-016 -178 -5 180 179.002 0.985149 179.879 6.1903 -34.9367 -4.09778 1.37335 25.3259 15.6405 -2.51934 -0.260223 0.391053 4.84293 -8.96667 6.13931 0 4.77083e-015 -0 -2 5 -0 0.99792 -0.985149 -0.120973 1.70834e-015 -7.53319e-016 2.35634e-015 
2.70779 92.4007 -25.3838 -4.12633 2.14355 -3.87251 -0.101998 2.81736 -13.1438 4.60958 -0.467497 9.07561 4.65835 -0.384669 9.05224 -1.80731 -0.00552778 0.353796 -85.344 5.45004 5.79741 14.1913 15.3883 -16.2311 0.480607 -0.00763107 -2.63579 -2.35799 0.00805903 -0.393388 75.0902 18.0702 6.01859 -16.2824 -4.55264 26.8859 -0.0270669 -0.000357852 0.54401 -10.346 0.487613 -3.85063 7.81432 -0.650774 -2.84449 6.33751 11.8885 8.8844 -0.477884 14.781 -4.69076 4.58004 -12.2944 -0.612538 -8.64081 -18.3471 -7.53058 5.96354e-016 3.18055e-015 -0 -178 -5 180 179.002 0.985149 179.879 5.76249 -34.3794 -4.3322 1.37051 25.5268 15.1303 -2.47632 0.364221 0.373527 4.88243 -8.45004 6.06936 -1.98785e-016 0 -0 -2 5 -9.06374e-016 0.99792 -0.985149 -0.120973 9.71989e-016 7.53319e-016 -4.71267e-016 
